<svg width="24" height="24" viewBox="0 0 24 24" fill="none" xmlns="http://www.w3.org/2000/svg">
<g clip-path="url(#clip0_63_102)">
<path fill-rule="evenodd" clip-rule="evenodd" d="M12.6145 1.00214C12.8935 0.965567 13.3521 1.40739 13.5493 1.61292C13.9445 2.02489 14.208 2.48758 14.3618 3.03939C14.9938 2.45213 15.3637 2.19645 16.1613 1.89491C16.4616 2.24024 16.6309 2.50976 16.799 2.9336C17.2558 2.81616 17.7274 2.76948 18.1978 2.79496C18.3849 3.14552 18.4929 3.44675 18.6323 3.81654L18.659 3.83463C19.0522 4.10689 19.1367 4.75394 19.1733 5.21096C19.9954 4.87762 20.5327 4.8815 21.3871 5.0794C21.5044 6.02471 21.3687 6.62274 20.9514 7.47672C21.8017 7.51518 22.4167 7.83454 23 8.44245C22.7727 9.40369 22.2963 9.99121 21.5001 10.5662C22.2532 11.0046 22.5979 11.4304 22.9929 12.1941C22.3436 13.0564 21.8833 13.3453 20.9189 13.7881C21.5469 14.4152 21.7465 14.9691 21.8029 15.8417C20.6584 16.6662 19.7591 16.9958 18.4118 16.4998C18.4411 16.5963 18.468 16.6935 18.4925 16.7913C18.7071 17.6672 18.5214 18.5058 18.0699 19.2682C16.8596 19.3711 16.5078 19.3047 15.4229 18.8018C15.4128 18.8715 15.4014 18.9412 15.3889 19.0106C15.2171 19.9623 14.7908 20.6541 14.0006 21.2091C13.2765 20.987 12.9999 20.7349 12.5303 20.1447C13.0013 22.101 12.3684 26.6762 11.9155 28.6654C11.8361 29.0141 11.7187 29.6098 11.5719 29.9406C11.5459 29.999 11.4999 29.9949 11.45 30C11.3694 29.847 11.5937 29.0635 11.6424 28.8402C11.7712 28.2449 11.8868 27.6467 11.9891 27.0462C12.2252 25.6543 12.3694 24.1695 12.4412 22.7605C12.4676 22.2425 12.4493 20.4888 12.2981 20.0336L12.2249 19.9997C12.1208 20.0529 12.0984 20.0624 12.0161 20.1453C11.9129 20.3945 12.0398 20.8048 12.0708 21.0768C12.3548 23.573 12.1046 26.11 11.5246 28.5446C11.4216 28.9769 11.2672 29.6464 11.0141 29.9845L10.968 29.9833C10.9261 29.6875 11.3925 28.0495 11.4887 27.6279C11.5764 27.2285 11.6497 26.826 11.7086 26.4212C12.0169 24.3839 12.0228 22.3108 11.726 20.2717C11.5418 20.3635 11.449 20.4037 11.254 20.4674C10.6838 20.0708 10.3181 19.685 9.98236 19.0671C9.95766 19.0974 9.93166 19.1268 9.90472 19.1552C9.23079 19.8704 8.42203 19.9919 7.49298 20.0147C7.07148 19.3103 6.94072 18.7678 7.02307 17.9322C5.99623 18.0311 5.61195 17.9886 4.60689 17.7173C4.52365 17.0234 4.49793 16.6484 4.62949 15.9634C3.61869 15.9105 2.65003 15.5727 1.90718 14.8618C2.05806 14.058 2.35747 13.5881 2.99089 13.0859C1.97838 12.6047 1.46245 12.0952 1 11.0744C1.36967 10.6282 1.53554 10.4943 2.00027 10.1403C1.37353 9.69782 1.28653 9.40424 1.04133 8.69101C1.94308 7.86945 2.48109 7.6432 3.66726 7.52903C3.12041 6.86637 3.0002 6.3344 3.04226 5.49551C3.79028 5.05585 4.19094 5.02993 5.03354 5.06171C5.07077 4.70944 5.14309 4.43149 5.26183 4.10128C5.66055 3.95548 6.01873 3.95195 6.43496 3.95813C6.53578 3.24828 6.65344 2.95797 6.94408 2.31102C7.66586 2.35467 8.10951 2.44887 8.67654 2.92298C8.90843 2.48997 9.16214 2.08636 9.53042 1.7608C10.2599 2.00105 10.6008 2.17207 11.1441 2.71925C11.4038 1.88383 11.8699 1.40424 12.6145 1.00214ZM14.1256 17.6176C13.8637 18.6642 13.3723 19.1591 12.5399 19.7986C12.9277 20.2865 13.1906 20.6366 13.7756 20.8919C13.8745 20.9282 13.9276 20.9647 14.0265 20.8974C14.7854 20.3812 15.067 19.5155 15.1968 18.6659C14.9334 18.4429 14.6714 18.2515 14.4362 17.9945C14.3179 17.8653 14.2473 17.7448 14.1256 17.6176ZM12.3445 14.0097C11.8217 14.574 11.3101 14.9521 10.5077 14.9792C10.4483 14.9811 10.3887 14.9817 10.3292 14.9809C10.086 15.3833 9.8771 15.7202 9.74577 16.1799C9.28293 17.8003 10.0642 19.2201 11.2696 20.2271C13.3074 19.3107 14.6566 17.7247 13.6406 15.4104C13.6136 15.3483 13.5851 15.2867 13.5555 15.2258C13.0995 14.949 12.877 14.8142 12.5695 14.356C12.5291 14.2958 12.3822 14.0419 12.3445 14.0097ZM9.38344 16.6937C8.78791 17.1938 8.02913 17.6963 7.26411 17.8661C7.2414 18.2542 7.24632 19.6774 7.71335 19.7732C8.61921 19.7224 9.22777 19.5673 9.84968 18.862L9.86435 18.8452C9.69096 18.4717 9.577 18.183 9.47769 17.7794C9.41812 17.5372 9.45723 16.8081 9.38344 16.6937ZM16.4831 14.612C16.494 14.8 16.5013 15.0499 16.5267 15.2317C15.4441 15.2275 14.9528 15.612 13.8444 15.3211C14.2108 16.089 14.2432 16.5657 14.2017 17.4054C14.7364 18.0428 15.0887 18.3859 15.8453 18.7398C16.6917 19.0925 17.0558 19.0905 17.9552 19.047C18.357 18.1269 18.4857 17.4209 18.1116 16.4505C17.7894 15.6145 17.2822 14.9952 16.4831 14.612ZM8.37718 14.6124C7.42489 14.948 6.63782 14.9801 5.6736 14.6331C4.85385 15.518 4.65382 16.3212 4.81703 17.5314C5.25951 17.6558 5.88339 17.773 6.34187 17.7487C7.4007 17.6509 7.823 17.4836 8.72734 16.9138C9.67079 16.3193 9.60806 15.8494 10.1353 14.9526C9.84008 14.9093 9.50777 14.8561 9.21212 14.8506C8.83824 14.8435 8.70783 14.7586 8.37718 14.6124ZM20.6729 13.9051C19.8073 14.1864 18.9334 14.3552 18.034 14.1452C17.5156 14.0241 17.3084 13.9428 16.7747 14.0844C16.6331 14.122 16.492 14.1135 16.3525 14.1863C16.3846 14.3749 16.756 14.4908 16.925 14.5892C17.3521 14.8379 17.7104 15.2066 17.966 15.632C18.0753 15.8267 18.1814 16.0232 18.2839 16.2216C19.2073 16.5743 19.8621 16.6194 20.7924 16.1862C21.0686 16.0544 21.3317 15.8959 21.5783 15.7131C21.4517 14.9946 21.2713 14.4285 20.7198 13.9159L20.6729 13.9051ZM3.26051 13.2265C2.63256 13.6479 2.35754 14.0423 2.1374 14.7743C2.89331 15.3976 3.429 15.5508 4.38999 15.6987C4.48682 15.7078 4.61952 15.744 4.67159 15.6694C4.96107 15.2543 5.05182 14.9211 5.41711 14.5509C5.03259 14.3796 4.24847 13.9503 4.01936 13.5867L4.02882 13.3911C3.92568 13.2981 3.40761 13.2127 3.26051 13.2265ZM14.5016 12.8157C13.7579 12.9204 13.4823 13.1203 12.7228 12.9712C12.7082 13.3565 12.6636 13.4763 12.488 13.8072C12.9328 14.6152 13.4017 15.0704 14.3543 15.1886C15.0749 15.2421 15.5828 15.0499 16.2801 15.0049C16.1222 13.9953 15.7185 12.838 14.5016 12.8157ZM11.343 12.5446C11.0778 12.3532 10.4721 12.43 10.1548 12.4586C9.12695 12.7154 8.68906 13.5484 8.62787 14.5597C9.58322 14.5711 10.2124 14.9195 11.13 14.673C11.6859 14.4237 12.113 14.0529 12.4246 13.5142C12.5379 13.3183 12.5856 13.1415 12.3964 12.9789C12.2003 12.9974 12.1948 13.0946 12.0623 13.0693C11.9782 12.9776 11.8295 12.7904 11.7249 12.7553C11.6562 12.7338 11.6142 12.7256 11.5495 12.6959C11.4558 12.6458 11.4652 12.6328 11.343 12.5446ZM7.16252 11.5386C7.07768 11.5406 6.7311 11.5423 6.66789 11.554C5.35783 11.7937 4.87701 12.3301 4.23973 13.4864C4.91246 14.172 5.81301 14.6483 6.77431 14.6936C7.42974 14.699 7.76991 14.6735 8.37467 14.3926C8.53609 13.661 8.64901 13.2649 9.15959 12.7028C8.31181 12.6727 7.93864 12.393 7.37729 11.7791C7.30487 11.6998 7.23327 11.6196 7.16252 11.5386ZM22.7468 12.1872C22.1183 11.0493 21.0195 10.2837 19.6983 10.4195C19.3097 10.4458 19.0567 10.472 18.674 10.5391C18.3643 10.832 18.1932 11.0015 17.8505 11.2519C18.7513 11.4737 19.0837 11.7545 19.6674 12.4831C18.9616 12.8283 18.5845 13.4394 17.6919 13.8426C18.3222 13.9665 18.5548 13.9911 19.1909 13.982C20.7053 13.7995 21.7483 13.3748 22.7468 12.1872ZM19.3166 12.3935C18.8434 11.927 18.1539 11.331 17.4318 11.4763C17.0831 11.5414 16.7315 11.578 16.3751 11.5709C15.4951 11.5534 15.9424 12.3037 15.2269 12.7769C15.7674 13.0872 15.9923 13.3288 16.2581 13.9073C16.4746 13.8861 16.8282 13.8606 17.0283 13.8152C18.1578 13.5155 18.428 13.0638 19.3166 12.3935ZM4.59434 9.82251C4.34776 9.80222 4.03308 9.76566 3.79416 9.78987C2.70921 9.88749 2.0073 10.2866 1.26634 11.1021C1.80864 12.1987 2.81935 13.0662 4.06127 13.1386C4.20681 13.078 4.2003 13.0589 4.29149 12.9199C4.87569 12.0299 5.43348 11.5769 6.47262 11.3652C5.71115 10.9803 5.071 10.564 4.59434 9.82251ZM16.5028 9.91749C15.9528 9.96449 15.0227 9.90951 14.592 10.2252C14.3739 10.3852 13.7691 10.8417 13.5284 11.014C13.377 11.1225 13.3827 11.716 13.3146 11.9534C13.1012 12.1569 12.6229 12.4416 12.5621 12.6458L12.5872 12.714L12.6771 12.747C13.3393 12.8887 14.5849 12.5911 15.2864 12.4552C15.4519 12.4231 15.5173 11.7669 15.5983 11.5817C16.1254 11.1974 16.1472 10.9089 16.373 10.3214C16.424 10.1885 16.5108 10.072 16.5456 9.93696L16.5028 9.91749ZM12.2384 7.67081C11.5593 8.82939 10.1609 9.63267 11.2169 11.0232C11.0437 11.4038 10.8789 11.9316 11.343 12.1844C11.4416 12.2381 11.4211 12.2322 11.49 12.2609C11.7308 12.3614 11.5678 12.4036 11.9783 12.6241C12.1066 12.6792 12.1276 12.7137 12.2494 12.6959C12.315 12.6078 12.4515 12.357 12.487 12.3307C13.0896 11.8869 13.1489 11.9314 13.1703 11.1674C13.3655 10.7244 13.7305 10.7327 13.6626 10.1891C13.6196 9.8443 13.4507 9.6201 13.3722 9.32677C13.1284 8.4165 12.8915 8.28803 12.2384 7.67081ZM9.35311 10.2768C8.74587 10.2789 8.63358 9.96315 7.92967 10.019C7.46923 10.1127 7.07001 10.245 6.66035 10.486C7.33592 11.592 8.27714 12.7983 9.70289 12.3587C10.2576 12.2226 10.503 12.1898 11.0759 12.2609C10.6835 11.4613 10.6893 11.9134 10.2356 11.4623L10.2192 11.446C9.86765 11.0947 10.0444 10.2744 9.35311 10.2768ZM8.67828 7.11174C8.4037 8.18474 8.40967 9.05411 8.96954 10.028C9.24272 10.0289 9.63222 10.0029 9.85026 10.2016C10.1539 10.4786 10.2547 11.4321 10.6576 11.4785C10.8273 11.4143 10.8288 11.3577 10.893 11.1904C11.0238 10.7192 10.0952 10.4693 11.0348 8.938C10.5296 7.94153 9.63227 7.61012 8.67828 7.11174ZM19.2293 8.71598C18.8566 8.72007 17.9759 8.69036 17.6709 8.71893C16.9161 8.87059 16.6368 9.19128 16.1329 9.72714C16.4182 9.69823 16.5995 9.69245 16.8865 9.69489C16.5393 10.3239 16.4723 10.7527 16.2146 11.3449C16.4791 11.3511 16.8031 11.3697 17.058 11.3054C18.2914 10.9814 18.9653 9.93145 19.2293 8.71598ZM8.27655 8.91578C7.46906 8.33361 6.67657 7.83216 5.65854 7.90089C5.07032 7.96605 4.73075 8.09915 4.20149 8.37166C4.71223 9.9692 5.46591 10.7438 7.0109 11.3361C6.89761 11.1819 6.73746 10.9767 6.64355 10.8158L6.39324 10.4182C6.97991 10.0307 7.79286 9.65469 8.51025 9.80934C8.53219 9.81406 8.55406 9.81925 8.57572 9.82507C8.47089 9.52516 8.36049 9.22205 8.27655 8.91578ZM16.2832 6.78551C15.6286 6.97775 14.489 7.3781 14.1297 8.01986C13.8158 8.58045 14.158 8.91389 13.5699 9.2837C13.8331 9.74497 13.9138 9.91463 13.9077 10.4695C14.1621 10.3329 14.3853 10.0969 14.6451 9.94424C15.0006 9.73548 15.4273 9.74818 15.8266 9.7234C15.9646 9.54999 16.2654 9.16929 16.3394 8.97103C16.5047 8.52784 16.5591 7.18283 16.4039 6.79967C16.3615 6.79212 16.3251 6.78165 16.2832 6.78551ZM20.8332 7.70129C20.6141 8.03986 20.291 8.53039 19.9971 8.79484C19.4244 9.30997 19.2024 9.60605 18.8345 10.2909C19.6349 10.1519 20.0847 10.1201 20.8683 10.286L21.3133 10.4425C22.026 9.81096 22.454 9.46153 22.7675 8.52111C22.1163 7.91118 21.7003 7.77228 20.8332 7.70129ZM3.92279 7.80551C3.71172 7.8017 3.42232 7.78628 3.21976 7.81751C2.48343 7.94171 1.85536 8.24737 1.31289 8.77773C1.53076 9.37973 1.65625 9.66166 2.23127 9.98671L2.63628 9.80442C3.21917 9.58041 3.79962 9.48216 4.42225 9.57376C4.30272 9.29832 3.95111 8.56245 4.02882 8.29831C4.10785 8.21084 4.1434 8.17504 4.23413 8.09792C4.19897 7.98971 4.02637 7.88187 3.92279 7.80551ZM13.5858 4.65642C12.7357 5.10428 12.4508 5.46069 12.0347 6.3171C12.2727 6.80871 12.3162 6.95143 12.4099 7.49068C12.7558 7.90784 13.2026 8.20446 13.4197 8.65424C13.4464 8.77867 13.4685 8.94751 13.5502 9.03691L13.6113 9.02787C13.8015 8.72205 13.7557 8.22204 13.8952 7.92193C13.9866 7.7252 14.3759 7.41619 14.5602 7.2844C14.5424 6.36513 14.3866 5.43741 13.7266 4.72367C13.6866 4.68041 13.6419 4.66534 13.5858 4.65642ZM21.1667 5.27369C20.7978 5.19771 20.5962 5.14744 20.2147 5.18697C19.8184 5.23365 19.5764 5.30473 19.2017 5.45107C19.1493 6.64636 18.935 7.49036 18.2725 8.49023C18.6092 8.49263 19.1522 8.41625 19.3813 8.59131C19.4611 8.70166 19.4319 8.83154 19.4217 8.97339C19.6756 8.92289 20.2753 8.12935 20.4328 7.88102C20.9957 6.99314 21.2346 6.31947 21.1667 5.27369ZM18.6387 4.12823C18.5715 4.10811 18.5505 4.0955 18.4819 4.11328C16.8602 4.57359 15.7671 5.36104 15.0818 6.98963C15.6685 6.75373 16.0338 6.63936 16.6436 6.49742C16.6508 6.85575 16.6774 7.17565 16.6903 7.52332C16.7348 8.02205 16.715 8.40329 16.6399 8.90123C17.1839 8.59918 17.406 8.4981 18.0286 8.44186C18.7593 7.32363 19.0874 6.19928 18.8782 4.82711C18.8533 4.66387 18.7457 4.24485 18.6387 4.12823ZM10.4839 5.15472C9.98544 5.94354 9.56753 6.48449 9.87923 7.47652C10.599 7.97634 10.6928 7.9708 11.1779 8.70949C11.265 8.68787 11.2339 8.70483 11.2951 8.60763C11.7058 8.13908 11.842 7.88018 12.1629 7.34988C11.8819 6.34833 11.4862 5.71854 10.5674 5.20014C10.5398 5.18462 10.512 5.16938 10.4839 5.15472ZM9.56306 6.47874C8.66442 5.18317 7.52571 4.07528 5.85361 4.19961C5.72432 4.21687 5.53311 4.22301 5.46849 4.33608C4.93314 5.27311 5.33621 6.9126 5.99692 7.62499C7.0098 7.84648 7.39751 7.99309 8.26129 8.62946C8.27775 8.25096 8.2973 7.7862 8.38587 7.41615C8.44527 7.2007 8.51262 6.98755 8.5877 6.77725C8.84194 6.98083 9.29619 7.19388 9.59261 7.35834C9.55032 7.0248 9.53092 6.81842 9.56306 6.47874ZM4.99974 5.30299C4.6864 5.28101 4.53208 5.27441 4.22061 5.29945C3.8241 5.38043 3.60793 5.45457 3.25027 5.64928C3.24465 6.44409 3.74314 7.73716 4.55571 7.95772L4.66812 7.92547C5.06942 7.77536 5.29628 7.71875 5.72363 7.67081C5.12602 6.81548 5.02979 6.35255 4.99974 5.30299ZM16.0584 2.18005C15.1247 2.55096 13.972 3.38973 13.8342 4.47609C14.5102 5.38713 14.6796 5.75301 14.7921 6.88462L14.8539 6.87459C15.3886 5.90489 15.944 5.05824 16.9223 4.49595C16.859 3.89206 16.6043 2.52659 16.0584 2.18005ZM9.56904 2.01723C8.83218 2.89305 8.47871 3.70369 8.49712 4.88944C9.01746 5.36379 9.26825 5.64068 9.63471 6.23234C9.8586 5.69008 10.0958 5.35206 10.4248 4.87469L10.8011 5.07527C11.3483 5.43147 11.4906 5.61661 11.9157 6.12733C12.4893 4.83344 11.2378 2.67243 10.0028 2.18221C9.85652 2.12409 9.71814 2.06812 9.56904 2.01723ZM12.6429 1.233C11.8859 1.71933 11.6186 2.07583 11.3052 2.91511C11.949 3.79692 12.1356 4.30161 12.3062 5.38932L12.65 5.01549C13.0097 4.71115 13.1843 4.60061 13.6076 4.39566C13.6994 3.85808 13.8573 3.66619 14.1774 3.23997C13.953 2.53437 13.3919 1.46993 12.6429 1.233ZM7.1096 2.54581C6.87121 2.89916 6.731 3.57178 6.65958 3.9892C7.2797 4.15815 7.62816 4.30258 8.17245 4.65209L8.23734 4.65327C8.3822 4.13521 8.33969 3.82337 8.5709 3.13319C8.0962 2.72405 7.7249 2.60815 7.1096 2.54581ZM18.0326 3.01344C17.9366 3.0158 17.7217 3.01462 17.6357 3.02484C17.349 3.05741 17.2017 3.07829 16.923 3.15089C17.0129 3.58016 17.0964 3.94539 17.1388 4.38387C17.3194 4.29778 17.4493 4.23426 17.6411 4.1709C17.8878 4.08367 18.1346 3.9936 18.3845 3.91703C18.2862 3.59225 18.2066 3.30773 18.0326 3.01344Z" fill="#010000"/>
</g>
<defs>
<clipPath id="clip0_63_102">
<rect width="24" height="24" fill="white"/>
</clipPath>
</defs>
</svg>
