<svg width="551" height="551" viewBox="0 0 551 551" fill="none" xmlns="http://www.w3.org/2000/svg">
<path d="M344.2 8.07018C345.844 7.92339 347.235 7.90429 348.047 9.56103C350.24 14.0405 350.945 19.28 353.022 23.8095C355.761 29.7776 359.67 34.7151 361.717 41.0696C366.695 39.8643 370.297 37.0434 375.702 37.6547C389.13 39.1734 391.53 53.3924 390.855 64.1229C398.21 61.1709 405.216 57.8402 413.341 58.36C416.998 58.4759 421.431 59.7092 424.111 62.3286C426.393 64.5584 421.219 69.7577 420.159 71.6135C418.103 75.2117 417.331 79.8699 416.664 83.8999C420.958 85.9509 424.203 87.786 425.462 92.9032C426.845 98.5291 424.784 104.117 421.908 108.915C427.819 108.34 435.701 109.259 441.273 107.47C443.915 106.473 445.791 103.332 448.217 102.227C450.736 101.082 451.866 103.483 452.638 105.268C449.186 126.73 442.64 140.525 429.788 157.776C436.764 157.719 445.928 160.134 452.299 162.706C458.107 165.338 465.988 170.289 468.105 176.622C471.159 185.757 464.193 183.048 460.757 185.322C457.029 187.792 452.081 192.489 448.425 195.4C439.535 202.474 430.56 206.073 419.866 209.559C422.031 210.335 423.963 210.945 426.312 210.841C429.201 210.712 436.016 207.027 437.526 207.752C438.152 208.054 438.699 208.906 438.917 209.545C439.444 211.106 438.822 212.802 438.058 214.172C432.99 223.25 409.217 234.094 399.397 238.022C395.289 239.666 391.03 240.936 386.851 242.39C384.129 243.338 381.527 244.559 378.734 245.292C384.398 250.17 390.457 258.628 393.421 265.46C397.39 274.938 397.928 285.594 396.515 295.678C395.945 299.749 396.238 303.069 392.041 304.775C388.907 303.427 388.414 301.863 386.51 298.934C380.249 296.994 375.901 296.953 369.428 296.593C358.809 296.001 350.253 292.132 341.24 286.687C340.172 294.209 336.107 301.511 333.019 308.611C331.458 312.2 329.273 325.806 323.973 325.407C321.022 325.187 320.801 319.583 320.188 317.094C319.825 315.647 319.254 314.261 318.498 312.975C314.632 306.561 292.945 299.052 287.62 291.793C287.537 291.68 284.386 288.57 284.287 288.492C282.748 287.281 279.939 281.594 278.599 281.26C277.52 282.624 277.313 305.407 277.588 308.549C279.487 330.25 283.326 351.86 283.964 373.701C284.844 371.562 285.831 370.017 286.886 368.043C296.827 349.438 313.537 338.179 332.572 330.352C339.976 327.307 345.241 325.728 352.737 323.158C371.137 316.855 390.618 315.364 408.065 306.445C409.766 305.576 411.95 305.124 413.761 304.479C415.787 304.062 425.053 299.383 425.534 303.526C426.019 307.707 419.691 311.415 418.181 315.073C413.522 326.373 415.954 339.524 416.519 351.381C417.802 379.464 412.833 407.318 394.632 429.567C373.719 455.132 340.441 461 310.021 451.182C303.246 449.119 295.63 443.924 288.333 444.378C284.583 444.612 272.344 453.087 270.652 455.883C268.74 459.437 267.829 463.496 266.417 467.268C257.083 492.182 246.996 518.134 229.129 538.296C227.28 540.201 225.521 542.452 223.061 543.556C220.03 545.003 216.064 543.521 214.27 540.736C210.525 534.922 214.571 530.044 217.685 525.608C236.61 498.641 249.154 467.788 259.35 436.643C261.137 431.184 262.245 425.33 263.683 419.758C264.47 416.707 265.425 413.718 266.161 410.656C271.76 383.367 269.508 354.413 265.957 326.976C265.49 323.368 263.357 313.524 262.245 310.08C260.665 311.823 259.618 313.368 257.82 315.165C254.625 318.367 250.342 321.436 247.806 325.125C246.461 327.449 245.751 329.952 244.402 332.306C242.503 335.615 236.902 341.937 232.661 339.39C230.135 336.218 235.588 329.491 232.573 324.315C230.658 321.027 229.406 319.698 226.852 316.76C220.172 309.077 215.223 299.805 213.054 289.832C209.869 292.256 205.243 294.804 201.324 296.243C195.391 298.422 187.545 298.638 182.592 302.708C182.084 303.125 180.945 304.949 180.554 305.563C179.656 305.95 178.16 306.722 177.249 306.268C175.231 305.264 173.337 300.303 172.409 298.164C165.107 281.341 165.375 271.445 171.652 254.974C157.746 262.123 140.493 262.326 125.521 259.117C123.276 258.636 114.948 264.731 115.603 257.486C115.687 256.55 117.752 254.226 118.136 253.226C120.032 247.417 120.089 241.077 122.34 235.338C125.628 228.005 131.494 220.859 138.28 216.512C138.905 216.112 139.368 215.752 139.478 215.067C138.584 214.711 133.32 214.493 131.856 214.352C115.83 212.808 101.092 204.07 89.3178 193.529C88.0358 192.429 82.549 189.887 82.3574 188.241C80.9635 176.246 93.7621 166.499 102.476 163.607C101.621 163.273 99.2108 162.399 98.6506 161.796C95.9403 158.882 99.7771 154.737 101.834 152.575C104.208 150.078 106.926 147.791 109.452 145.382C106.098 142.147 102.731 137.415 100.697 133.136C98.7994 129.016 97.6635 124.006 94.5873 120.605C90.74 116.352 82.6897 113.71 91.3146 108.474C100.102 103.14 108.866 99.7988 119.162 98.944C115.628 89.7592 111.069 82.4713 113.604 72.146C117.123 57.8125 130.624 55.3666 142.855 58.1601C142.956 50.8047 145.872 43.5228 153.474 41.1533C161.899 38.5272 170.922 42.3245 178.327 46.203C179.606 45.4938 181.754 38.7518 182.463 36.9506C184.611 31.4923 188.254 26.1188 193.893 23.7116C200.166 21.034 207.105 25.1928 212.796 27.7302C214.288 22.6838 217.356 16.9415 221.618 13.8099C225.244 11.145 231 8.66942 235.525 9.68583C246.833 12.2261 256.392 21.6996 262.538 30.9278C267.85 23.5341 280.1 8.77811 289.896 8.39219C299.297 8.02178 307.268 21.6638 311.07 28.812C311.952 30.4704 312.999 33.7772 314.317 35.0563C315.969 34.7552 318.13 31.3037 319.698 30.1898C325.181 26.2983 332.876 23.8374 337.506 18.9177C340.433 15.8095 340.092 10.4693 344.2 8.07018ZM282.651 433.299L299.891 425.879C301.979 424.988 308.183 422.669 309.897 421.628C315.784 417.673 319.418 410.328 322.114 403.99C324.525 398.318 324.14 391.509 323.753 385.547C323.559 382.571 322.526 378.683 325.047 376.631C326.408 376.953 326.777 377.037 327.53 378.404C330.597 383.967 330.126 395.205 328.719 401.173C327.541 406.169 325.51 410.307 323.704 414.778C327.474 411.003 331.213 409.629 335.136 406.629C338.477 404.076 346.952 397.468 349.019 394.081C353.393 386.897 356.936 371.836 357.149 363.321C357.378 354.246 351.443 341.109 358.096 332.583C358.556 331.994 359.202 331.808 359.893 331.786C362.177 332.86 361.728 337.786 361.421 339.893C360.431 346.732 361.604 352.244 362.473 358.984C363.525 367.152 362.387 376.639 359.665 384.446C367.833 375.108 373.189 368.22 379.824 357.612C387.583 345.212 394.215 327.03 403.957 316.642C403.578 316.411 403.685 316.446 403.543 316.424C391.183 321.633 377.136 323.634 364.187 326.954C360.609 327.872 357.59 329.314 353.625 330.457C324.089 338.97 293.375 355.753 287.206 388.651C286.775 390.944 288.279 396.064 288.239 398.587C289.194 411.186 290.16 422.459 282.651 433.299ZM361.943 390.271C369.816 388.947 379.243 383.566 385.799 379.1C388.151 377.5 390.728 374.112 393.284 372.358C396.262 370.313 396.193 369.458 398.668 372.772C394.527 381.53 376.184 391.858 367.047 395.13C363.13 396.521 359.089 397.535 354.981 398.157C345.047 408.843 337.113 416.293 324.202 423.541C329.255 423.307 334.334 423.527 339.368 423.199C352.153 422.365 365.053 419.287 376.999 414.7C381.172 413.099 381.949 410 384.804 415.133C384.024 417.38 382.579 418.085 380.523 419.075C368.406 424.913 344.531 430.17 330.942 429.605C327.917 429.481 316.978 427.886 315.49 428.155C309.824 429.183 299.141 434.905 293.606 437.658C301.32 438.718 304.82 441.965 312.068 444.276C333.753 451.338 358.769 450.233 377.311 435.85C387.142 428.225 395.665 417.469 400.629 406.034C403.796 398.743 407.073 387.909 408.141 380.158C409.394 370.671 409.785 361.093 409.311 351.534C408.765 340.261 407.124 329.158 409.884 318.014C410.159 316.9 411.318 314.032 410.906 313.22L410.643 313.134C409.914 313.551 405.321 315.999 405.031 316.308C405.996 316.898 406.551 316.949 407.003 317.748C406.443 321.173 399.895 331.246 398.1 334.934C389.883 351.801 380.752 368.435 368.729 382.929C365.906 386.33 365.57 387.449 361.943 390.271ZM254.819 95.9393C257.167 92.8892 259.755 90.0613 261.882 86.8021C262.577 85.7372 264.897 85.9732 265.981 86.5454C267.552 88.2329 267.265 91.1633 269.438 92.5725C272.92 94.8282 277.851 100.821 280.819 102.807C284.924 99.9002 289.802 97.414 293.345 94.3859C298.239 89.7775 290.94 75.9503 300.744 80.5092C303.472 86.5861 301.048 89.0978 302.401 94.0117C303.795 99.0732 306.784 105.134 308.35 110.58C312.959 105.745 312.582 104.629 313.903 98.3263C315.35 91.1124 316.459 83.4213 316.039 75.9836C314.907 55.9935 308.953 32.6556 294.715 17.9251C293.173 16.3293 291.376 15.5093 289.189 15.649C281.478 17.5025 271.771 30.2942 267.604 36.9283C258.256 51.8088 252.616 66.5203 253.285 84.4173C253.437 88.492 254.36 92.0105 254.819 95.9393ZM194.199 31.2103C179.352 50.2198 181.609 82.4011 190.718 103.467C191.991 106.41 201.206 111.628 204.311 113.16C204.463 111.144 204.687 108.967 204.655 107.062C204.617 104.807 201.877 100.14 203.834 98.3034C206.365 95.9278 209.764 98.3241 211.291 100.635C212.064 101.805 212.909 102.783 213.747 103.881C215.068 105.213 220.619 108.489 222.314 108.3C222.891 107.745 222.84 107.772 223.049 106.989C224.297 103.751 229.53 91.3045 232.046 90.071C232.707 89.747 233.335 89.7277 234.018 90.0188C236.145 90.926 237.146 93.8559 239.167 95.058C241.656 96.538 244.956 96.7459 247.72 97.4896C246.867 90.9634 246.506 84.4582 245.835 78.0776C245.7 76.7897 239.477 66.7417 238.425 65.0169C231.892 54.3023 210.969 28.5874 196.869 30.1637L194.199 31.2103ZM319.69 214.011C326.228 219.467 326.669 222.727 327.702 230.723C338.37 236.773 355.465 240.93 367.655 239.841C374.796 238.855 380.128 237.739 386.857 235.043C391.379 233.231 396.604 232.216 400.998 229.86C404.926 227.834 409.077 226.178 412.975 224.165C416.425 222.386 419.43 220.06 422.973 218.275C411.606 214.913 409.155 206.398 400.492 200.022C395.033 196.004 381.729 190.695 375.091 191.088C369.66 193.413 365.75 196.668 359.923 198.667C357.44 199.518 348.443 201.207 347.52 201.945C338.324 209.31 332.637 213.545 319.69 214.011ZM345.424 161.994C361.707 157.151 367.357 148.991 384.764 156.72C385.56 156.988 387.65 157.987 390.174 158.108C392.77 158.231 406.013 150.326 403.815 159.944C403.349 161.981 396.54 163.129 395.337 165.299C391.42 169.521 387.623 176.542 385.207 181.764C389.959 178.491 395.194 176.741 400.519 173.412C421.822 160.092 437.154 139.848 443.442 115.484C443.574 114.97 443.52 115.059 443.353 114.533L443.151 114.453C440.593 115.007 436.544 115.836 434.103 115.705C414.235 114.633 394.842 120.003 378.74 131.794C376.905 133.137 374.553 134.475 372.856 136.077C369.896 138.876 367.674 142.426 364.949 145.444C359.242 151.564 352.374 157.311 345.424 161.994ZM331.886 122.422C334.331 120.921 338.655 118.411 340.156 122.276C342.414 128.088 341.859 136.941 340.657 142.8C340.579 143.386 340.248 144.493 340.823 144.883C344.633 147.451 343.791 151.464 342.976 155.402C355.056 145.64 363.657 139.353 370.98 125.096C378.944 109.585 376.334 95.86 375 79.4015C374.841 77.4308 374.978 75.0221 374.882 72.969C374.502 72.595 374.701 72.6548 374.379 72.6125C369.043 76.2502 366.315 76.5771 360.937 79.1645C350.719 84.0794 339.64 89.2308 331.695 97.5141C330.481 98.7788 328.213 100.801 327.5 102.161C327.202 104.197 329.599 105.572 330.417 108.687C331.765 113.828 332.284 117.054 331.886 122.422ZM238.787 283.996C239.345 285.514 239.523 286.087 239.862 287.685C248.649 270.073 275.484 270.657 279.492 249.055C270.466 243.542 267.796 240.773 264.928 230.037C264.351 227.874 264.365 222.854 263.771 221.891C260.616 225.411 253.31 227.635 248.868 227.645C240.835 227.664 236.31 222.724 229.703 230.313C225.062 234.897 222.428 246.291 222.366 252.29C222.294 259.286 227.17 266.484 231.417 271.507C233.127 273.531 237.857 281.648 238.787 283.996ZM154.608 107.934C154.899 114.694 154.296 123.455 155.393 129.901C158.347 147.257 177.165 160.337 193.241 164.207C196.794 164.866 201.569 165.566 204.937 166.437C205.754 164.464 207.907 160.103 206.882 158.145C203.323 151.344 199.511 145.349 198.208 137.638C197.541 133.694 196.574 128.919 202.733 130.636C202.846 127.992 203.147 123.568 203.041 121.059C195.916 116.884 188.675 110.732 181.075 107.217C179.598 106.534 176.894 106.218 175.247 106.097L174.781 106.158C167.706 107.134 162.341 111.005 154.608 107.934ZM148.037 126.78C147.923 122.33 147.261 101.177 148.193 98.4702C152.727 95.0168 155.365 102.439 159.119 102.236C168.676 101.719 171.909 97.1853 182.049 100.052C181.338 97.7691 176.846 81.0483 176.305 80.6152C166.054 72.4166 145.094 62.6913 131.935 64.3946C122.535 65.499 119.17 71.7327 120.239 80.6165C120.862 85.7932 123.041 90.3287 125.225 94.9713C130.523 106.868 138.092 118.216 148.037 126.78ZM286.071 251.501C284.828 255.264 283.703 258.761 281.618 262.176C281.257 262.767 280.157 264.74 280.224 265.351C280.98 272.064 285.29 278.473 289.517 283.544C290.163 284.319 291.944 286.523 292.616 287.012C295.805 289.458 299.805 292.557 303.262 294.572C310.344 298.702 320.196 302.724 324.735 309.808C326.564 305.326 328.711 301.662 330.6 297.411C335.741 285.837 336.702 274.822 331.431 263.123C330.309 260.632 323.091 247.67 321.095 246.767C320.083 255.115 319.819 263.769 313.058 269.882C310.04 272.61 305.307 270.407 307.051 267.097C310.096 261.321 313.233 256.765 304.869 253.753C299.176 251.848 292.016 252.861 286.071 251.501ZM389.617 291.045C390.817 283.87 389.762 274.76 386.763 268.124C383.58 261.088 376.082 250.799 369.42 246.841C355.621 246.918 347.011 245.937 333.869 241.071C331.375 240.147 328.195 238.838 325.738 238.002C326.007 242.033 333.653 252.177 336.193 256.812C338.015 260.194 339.454 263.767 340.484 267.466C341.386 270.681 341.8 275.293 342.486 278.147C343.043 280.466 354.16 285.874 356.606 286.824C366.641 290.73 378.756 288.99 389.109 291.936C389.197 291.912 389.289 291.887 389.378 291.866C389.561 291.425 389.588 291.497 389.617 291.045ZM148.162 188.645C152.401 184.723 155.182 184.746 159.316 181.269C160.62 180.172 162.639 176.704 163.45 175.101C165.991 170.082 170.223 166.102 175.875 164.807L176.421 164.676C166.116 159.585 161.849 155.874 154.923 146.664C148.819 145.658 137.798 142.778 132.527 143.229C124.836 144.183 115.982 148.725 110.511 154.294C109.501 155.323 107.56 156.279 107.603 157.716C108.852 159.194 111.659 161.782 112.591 163.18C120.422 174.934 128.194 187.862 143.238 190.861C145.2 191.252 146.489 190.111 147.852 188.92L148.162 188.645ZM317.503 44.088L317.567 44.5147C318.514 50.4813 321.022 58.1305 321.974 64.2886C323.505 74.1907 323.699 89.714 320.774 99.1418C322.628 97.3696 323.223 96.6052 324.713 94.479L324.977 94.1844C329.424 89.2676 337.703 83.6322 343.226 80.2348C345.244 78.9956 352.925 75.7555 353.495 74.6309C355.656 70.3781 357.515 57.4764 357.243 52.9928C356.675 43.6151 351.292 35.3945 346.904 27.458C346.169 26.1253 344.999 22.6082 344.612 22.0772L344.348 21.9747C342.54 23.9148 340.519 26.2164 338.321 27.65C330.522 32.7317 321.541 34.9742 317.503 44.088ZM185.483 247.678C183.309 250.552 180.096 255.513 178.254 258.561C174.524 264.733 173.389 273.63 174.262 280.652C174.61 283.617 177.685 293.469 179.309 295.616C185.586 293.146 189.838 291.941 196.359 290.402C203.319 288.756 211.164 283.06 216.162 278.107C217.832 276.415 222.329 272.167 221.071 269.864C217.052 262.504 214.475 256.051 215.773 247.521C215.441 247.024 215.646 247.107 215.327 247.03C208.022 249.242 203.493 248.98 195.907 247.994C192.415 247.539 188.983 247.151 185.483 247.678ZM126.356 251.566C131.916 253.137 135.111 253.928 140.841 254.151C149.035 254.233 157.137 253.386 164.807 250.289C169.468 248.78 171.228 246.872 173.288 242.506C175.295 238.253 177.312 233.046 177.657 228.247C178.136 221.568 179.264 218.652 182.211 212.78C176.978 212.625 170.254 209.798 168.035 209.86C147.186 217.485 127.354 226.207 126.356 251.566ZM157.858 47.404C155.204 47.9345 152.974 49.0761 151.278 51.3038C150.405 52.4512 149.56 58.8138 151.005 59.5462C154.442 61.2874 158.326 62.4626 161.866 64.0045C165.858 65.6529 168.788 67.713 172.431 69.6977C173.793 70.3959 175.099 71.0569 176.422 71.8285C176.077 65.8536 177.233 60.3552 177.457 54.5409C173.402 50.5542 164.987 47.3634 159.405 47.3219C158.889 47.3227 158.372 47.3502 157.858 47.404ZM363.62 48.7132C364.454 53.7913 363.595 65.7116 362.237 70.8167C366.84 69.5166 370.321 67.3086 374.139 64.429C375.813 62.9445 379.59 59.5085 381.667 61.9778C383.174 63.771 382.356 68.1068 382.272 70.2455C384.71 62.8979 385.45 43.6347 373.779 44.7615C369.834 45.1421 367.246 46.92 363.62 48.7132ZM255.112 162.609C252.206 158.769 249.206 156.048 246.647 152.151C245.296 150.093 245.148 147.462 243.335 147.078C234.517 156.844 231.693 167.858 242.526 178.019C243.701 179.12 246.248 182.503 246.9 182.773C247.562 170.352 250.495 171.589 255.112 162.609ZM276.616 140.067C275.225 141.623 273.321 143.561 272.239 145.254L272.269 145.714C272.952 145.727 272.914 145.679 273.495 145.293C274.679 144.49 274.254 144.529 275.468 144.551L277.636 145.786C277.512 144.194 277.588 140.966 276.616 140.067ZM283.168 112.816C284.596 116.633 285.976 117.38 288.024 120.636C288.635 121.611 289.939 125.528 290.362 126.778C290.636 127.798 290.615 128.3 291.263 129.015C294.65 128.055 297.691 125.33 299.407 122.299C301.624 118.341 302.127 113.648 300.801 109.31C300.424 108.048 297.717 100.923 296.838 100.596C292.912 103.057 287.359 105.745 284.279 109.187C283.749 109.778 283.324 111.935 283.168 112.816ZM245.798 115.805C246.29 113.32 248.872 104.846 245.63 103.904C241.748 102.777 237.54 102.085 233.923 100.036C232.258 102.533 228.172 109.372 228.795 112.265C229.073 113.561 231.869 116.965 232.915 118.888C234.578 115.204 235.725 111.192 239.496 109.597C242.712 110.727 243.246 113.146 245.798 115.805ZM309.935 134.111C313.228 132.437 313.707 132.567 317.374 133.324C321.127 130.57 324.38 127.926 324.869 123.201C325.397 118.097 325.238 113.733 322.978 109.09L322.399 108.873L322.133 109.107C317.729 112.918 307.04 117.179 306.343 123.17C306.187 124.514 309.238 131.09 309.935 134.111ZM211.952 111.164C210.546 117.527 208.587 127.833 210.364 134.088C215.456 134.435 221.507 134.515 226.136 137.014C227.75 132.665 229.138 126.634 227.148 122.302C223.804 115.024 217.187 114.713 211.952 111.164ZM318.383 155.89C323.207 154.366 329.537 152.333 331.913 147.423C333.654 143.824 335.943 132.917 334.905 129.322C334.391 129.09 334.614 129.134 334.262 129.096L333.877 129.452C329.69 133.262 322.138 136.79 319.028 141.886C318.673 142.464 318.431 145.137 318.45 145.924C318.525 148.837 317.75 152.973 317.707 155.644C318.186 155.961 317.949 155.924 318.383 155.89ZM267.483 140.397C266.733 138.38 266.056 135.807 264.23 134.624C262.438 137.276 262.486 141.43 264.137 144.128L264.589 144.394C264.897 144.238 265.006 144.217 265.26 143.995C266.074 142.784 266.85 141.714 267.483 140.397ZM242.426 135.092C244.313 134.077 246.93 133.596 247.635 136.256C248.445 139.314 248.053 141.027 249.513 144.079C250.285 138.531 251.341 131.251 247.76 126.635C246.025 124.399 242.471 121.417 239.966 120.239C235.84 125.131 232.624 134.054 233.02 140.532C233.137 142.433 234.583 144.026 235.725 145.608C236.791 144.414 237.83 143.303 238.632 141.916C239.936 139.661 240.783 137.104 242.426 135.092ZM301.516 131.323C298.153 132.471 294.142 134.836 292.097 137.8L292.108 138.296C294.416 139.277 294.871 137.953 297.08 140.285C297.855 142.042 297.938 142.59 298.307 144.456C303.609 139.911 304.691 138.529 302.044 131.636L301.516 131.323ZM229.33 168.671C229.2 167.549 229.01 166.235 228.992 165.124C228.982 159.998 230.216 156.246 232.08 151.491C229.956 147.725 225.418 143.506 221.156 142.378C216.046 141.024 210.995 141.756 205.923 140.579C210.238 153.87 217.401 161.686 229.33 168.671ZM260.959 157.169C261.28 152.484 260.388 149.417 257.985 145.382C257.436 144.461 256.877 143.065 256.025 142.438C255.807 145.962 255.025 152.33 257.381 154.996C258.165 155.883 259.855 156.63 260.959 157.169ZM414.921 203.158C419.142 202.573 420.718 202.174 424.579 200.455C435.917 196.573 439.979 193.378 449.189 185.412C451.927 183.043 456.227 179.303 459.423 177.872L459.891 177.659C459.985 177.618 460.082 177.578 460.176 177.538C454.981 170.919 450.528 169.084 442.449 166.842C436.223 165.114 429.922 164.03 423.42 164.421C422.255 165.232 421.3 166.252 420.25 167.177C412.219 174.247 403.287 180.609 393.666 185.321C392.953 185.67 391.067 186.545 390.604 187.081C391.915 188.364 399.163 190.608 401.487 192.295C404.003 194.121 406.139 195.638 408.582 197.815C410.576 199.592 412.634 202.054 414.921 203.158ZM415.599 91.1732C415.036 92.6468 414.746 94.3934 414.173 95.7209C412.16 100.387 408.961 106.98 406.072 111.102L406.362 111.347C407.369 111.219 407.896 111.134 408.878 110.894C412.141 109.898 415.165 107.059 416.597 103.992C418.738 99.4022 420.546 94.4763 415.599 91.1732ZM415.225 65.672C412.593 65.5969 410.748 65.5421 408.111 65.7503C401.237 66.3441 380.892 75.1458 382.197 83.8943C383.908 95.3698 384.586 111.563 379.886 122.36C381.554 121.295 382.87 120.426 384.651 119.558C387.075 118.632 392.259 116.083 394.159 114.282C398.918 109.765 404.046 101.416 406.828 95.528C409.521 89.821 409.241 81.5224 411.135 75.1698C412.284 71.3136 414.407 68.6646 415.225 65.672ZM351.332 194.033C364.335 190.469 375.038 185.341 381.75 173.078C382.773 171.209 386.106 166.335 385.829 164.826C383.545 162.499 374.57 160.308 371.177 160.437C363.372 161.431 358.387 164.86 351.37 167.48C348.3 168.626 341.674 169.377 338.16 170.103C336.487 171.566 335.373 172.553 334.116 174.441C337.275 174.854 340.977 175.375 344.095 174.617C351.063 172.921 353.033 170.556 360.569 172.355C365.051 177.146 360.068 178.929 356.334 182.049C353.544 185.536 352.944 189.905 351.332 194.033ZM278.753 429.944C281.19 427.956 283.044 419.131 283.278 415.978C283.429 413.952 284.594 402.956 283.98 401.582C281.989 407.24 282.153 417.278 280.429 423.353C280.087 424.555 278.605 429.312 278.753 429.944ZM311.452 142.011C308.544 144.574 304.244 148.004 302.149 151.21C301.277 152.546 300.599 154.426 299.525 156.067L299.695 156.524L300.125 156.655C302.399 155.05 304.535 153.473 307.002 152.183C308.654 151.32 310.728 152.706 311.361 150.793C311.977 148.621 312.216 144.639 311.923 142.508L311.452 142.011ZM318.945 163.122C319.4 167.129 319.93 170.644 319.819 174.689C328.856 172.996 334.506 164.158 336.075 155.631L335.819 155.246L335.574 155.209C328.512 159.398 326.731 160.323 318.945 163.122ZM281.723 133.432C283.555 136.988 283.281 138.835 284.4 142.299C285.565 135.091 284.857 127.927 281.018 121.582C280.754 121.148 280.509 121.078 279.979 121.057C277.351 122.415 269.71 131.238 271.365 134.439C273.708 134.935 277.243 129.561 281.723 133.432ZM267.285 125.62C267.944 124.387 268.671 122.998 269.581 121.949C272.75 118.295 277.693 115.171 276.094 109.525C274.865 105.174 267.169 98.94 263.264 96.7346C257.19 103.518 252.416 108.545 252.396 118.679C252.39 121.843 256.672 128.61 258.241 132.431C259.097 130.568 260.145 128.09 261.226 126.41C263.291 124.305 264.591 124.883 267.285 125.62ZM283.087 160.834C284.604 164.19 285.818 164.612 287.3 167.199C288.051 168.101 287.626 167.951 288.497 168.071C289.773 167.055 290.351 165.59 291.871 163.691C295.412 159.274 292.584 152.569 291.707 147.603C291.65 147.535 291.594 147.468 291.537 147.4C288.244 150.602 284.193 156.26 283.087 160.834ZM161.651 204.814C154.067 196.94 154.037 199.064 143.857 197.928C131.906 196.595 120.911 187.405 114.011 178.056C112.496 176.059 109.503 170.132 107.41 169.816C103.533 170.667 101.75 171.239 98.4209 173.425C93.0045 176.98 92.1148 178.862 89.8088 184.689C93.5256 188.171 97.4951 190.843 101.421 194.021C114.216 204.376 128.049 208.278 144.44 208.235C149.768 208.122 156.842 207.329 161.651 204.814ZM249.454 197.39C244.473 191.258 240.199 183.051 233.626 178.481C227.299 174.083 219.169 171.452 213.816 165.503C213.61 165.273 213.362 165.115 213.086 164.985C212.166 168.228 211.125 171.042 210.807 174.443C209.94 183.725 215.188 194.456 225.053 196.325C225.489 194.54 226.06 192.116 226.515 190.627C229.093 182.194 232.536 181.324 236.577 189.336C236.727 189.633 238.422 191.373 238.827 191.796C242.919 195.691 243.922 196.006 249.454 197.39ZM155.358 191.663C167.621 196.093 169.702 208.381 187.953 205.682C190.774 204.597 193.6 202.665 196.287 201.224C201.243 198.566 207.126 198.152 212.634 197.801C205.247 190.065 204.112 183.815 203.753 173.651C196.064 171.703 188.28 170.488 180.316 170.964C170.953 172.03 170.693 178.232 165.785 184.361C162.664 188.261 159.945 189.975 155.358 191.663ZM311.272 190.276C314.603 191.492 318.644 193.05 320.269 196.405C322.152 200.295 316.408 200.702 314.594 201.408C312.122 203.313 311.533 204.261 309.964 206.911C320.678 207.533 330.059 207.308 338.811 200.075C346.654 193.593 345.338 186.648 349.5 180.239L349.476 179.783L349.083 179.721C343.619 183.002 336.882 181.781 331.03 180.499C322.192 178.563 316.472 183.712 311.272 190.276ZM299.203 196.779C294.701 197.187 291.193 197.374 288.156 201.22C284.128 206.32 278.214 206.85 272.309 207.573C272.831 214.019 276.186 216.869 282.382 218.239C287.416 218.616 290.948 218.476 295.218 215.185C302.186 209.814 302.95 201.556 309.292 196.878C305.754 196.625 302.765 196.413 299.203 196.779ZM226.614 276.576C221.907 285.481 217.343 281.325 221.379 294.33C221.596 295.024 221.878 295.694 222.222 296.335C224.009 299.606 225.668 303.965 227.851 306.838C231.182 311.218 235.303 315.388 238.292 320.097C238.812 320.914 239.73 323.231 240.193 324.232C240.61 323.497 241.739 321.108 242.134 320.653C246.812 315.254 252.07 311.452 256.371 305.687C261.051 299.413 263.349 293.407 264.811 285.697C265.159 284.007 266.383 277.572 265.956 275.952C265.809 275.885 265.474 275.715 265.335 275.691C260.408 278.328 252.707 282.651 248.805 286.595C246.515 288.912 244.624 293.545 243.729 296.593C243.375 297.82 242.309 302.334 241.357 302.913C239.03 304.331 236.806 301.029 236.185 299.108C234.718 294.57 233.786 289.843 231.744 285.481C230.218 282.153 228.287 279.837 226.614 276.576ZM309.125 159.048C303.957 161.624 294.796 169.265 291.968 174.955C291.016 176.874 292.729 181.966 292.904 183.97C293.16 186.109 292.783 188.006 293.391 190.007C293.693 190.999 295.121 190.606 295.872 190.473C302.579 189.12 305.921 186.552 310.182 181.095C314.282 175.843 313.852 164.069 309.62 159.12L309.125 159.048ZM181.593 241.353C186.18 240.292 187.938 240.209 192.652 240.577C199.377 241.608 210.083 243.47 215.732 238.978C219.618 235.888 220.521 227.227 225.813 223.793C227.92 222.426 227.955 221.53 230.948 220.333C225.816 215.078 224.249 210.943 224.074 203.54L220.995 203.774C209.79 204.823 198.022 205.011 189.837 214.234C185.126 219.542 185.189 225.061 184.205 231.675C183.692 235.026 182.836 238.178 181.593 241.353ZM232.312 195.138C231.162 201.712 229.496 207.083 233.664 213.171C239.533 221.743 252.716 223.123 260.542 216.318C263.52 212.693 264.258 211.061 265.262 206.381C263.573 205.46 260.61 203.758 258.768 203.512C253.218 202.772 249.687 205.014 243.818 202.865C240.18 201.533 237.645 199.253 234.565 196.946C233.731 196.322 233.19 195.472 232.312 195.138ZM313.438 250.973L313.435 250.578C313.459 241.047 326.779 230.888 316.545 220.274C314.371 218.021 308.581 214.153 305.356 213.874C300.475 223.28 286.251 228.365 276.711 223.793C274.787 222.87 273.208 221.279 271.292 220.319C270.94 233.133 274.827 241.212 287.978 244.712C297.548 246.557 305.947 243.976 313.438 250.973ZM118.502 106.104C110.45 107.25 104.769 108.785 97.8169 113.363C99.5129 114.744 100.657 116.686 101.809 118.513C105.82 124.868 106.553 130.648 111.345 136.711C117.936 145.051 120.527 138.092 127.817 137.034C135.78 135.346 142.858 137.053 150.552 139.244C147.842 135.671 146.087 134.936 143.023 132.054C137.16 126.539 131.398 120.268 127.187 113.388C125.966 111.393 123.72 106.235 121.591 106.032C120.709 105.948 119.421 106.028 118.502 106.104ZM231.261 16.717C227.514 17.7639 223.776 20.7998 221.808 24.1477C220.472 26.4215 219.283 29.7219 219.99 32.3411C220.172 33.0153 229.81 41.9648 231.23 43.5943C237.236 50.4835 242.023 58.2303 247.255 65.6879L247.667 65.7325C248.253 64.969 248.473 63.2199 248.712 62.196C250.631 53.9576 255.096 46.1134 257.939 38.26C253.557 29.3595 242.095 15.989 231.261 16.717ZM272.322 153.778C266.342 158.568 254.313 172.516 253.6 180.744C252.651 191.692 258.766 197.04 268.592 199.915C276.511 201.414 284.774 199.555 286.151 190.527C287.725 180.189 282.086 171.503 276.576 163.474C275.419 161.792 273.544 154.283 272.322 153.778Z" fill="black"/>
<path d="M283.98 401.582C284.593 402.956 283.429 413.952 283.278 415.978C283.044 419.131 281.19 427.956 278.753 429.944C278.605 429.312 280.087 424.555 280.429 423.353C282.153 417.278 281.989 407.24 283.98 401.582Z" fill="black"/>
</svg>
